{
  "accessors": [
    {
      "bufferView": 2,
      "componentType": 5126,
      "count": 21568,
      "max": [
        0.24805039167404175,
        0.7542539238929749,
        0.32010576128959656
      ],
      "min": [
        -0.29975613951683044,
        0.3619331121444702,
        -0.22115805745124817
      ],
      "type": "VEC3"
    },
    {
      "bufferView": 2,
      "byteOffset": 258816,
      "componentType": 5126,
      "count": 21568,
      "max": [
        0.999722957611084,
        0.9999997615814209,
        0.999600887298584
      ],
      "min": [
        -0.9998569488525391,
        -0.9791390299797058,
        -0.9999945759773254
      ],
      "type": "VEC3"
    },
    {
      "bufferView": 3,
      "componentType": 5126,
      "count": 21568,
      "max": [
        0.9999850392341614,
        0.9998539686203003,
        0.9999673962593079,
        1.0
      ],
      "min": [
        -0.9999545216560364,
        -0.9999489188194275,
        -0.9999999403953552,
        -1.0
      ],
      "type": "VEC4"
    },
    {
      "bufferView": 1,
      "componentType": 5126,
      "count": 21568,
      "max": [
        0.9999887943267822,
        0.9999992251396179
      ],
      "min": [
        1.724295361782424e-05,
        0.003490746021270752
      ],
      "type": "VEC2"
    },
    {
      "bufferView": 1,
      "byteOffset": 172544,
      "componentType": 5126,
      "count": 21568,
      "max": [
        0.9999887943267822,
        0.9999992251396179
      ],
      "min": [
        1.724295361782424e-05,
        0.003490746021270752
      ],
      "type": "VEC2"
    },
    {
      "bufferView": 1,
      "byteOffset": 345088,
      "componentType": 5126,
      "count": 21568,
      "max": [
        0.9999887943267822,
        0.9999992251396179
      ],
      "min": [
        1.724295361782424e-05,
        0.003490746021270752
      ],
      "type": "VEC2"
    },
    {
      "bufferView": 0,
      "componentType": 5125,
      "count": 103434,
      "type": "SCALAR"
    }
  ],
  "asset": {
    "extras": {
      "author": "Naveen Manja (https://sketchfab.com/naveen)",
      "license": "CC-BY-4.0 (http://creativecommons.org/licenses/by/4.0/)",
      "source": "https://sketchfab.com/3d-models/nike-air-jordan-1-low-bred-toe-20-3d-model-free-4e02b8dfb8074c9494e1f9da11caa619",
      "title": "NIKE AIR JORDAN 1 LOW BRED TOE 2.0 3D Model free"
    },
    "generator": "Sketchfab-16.12.0",
    "version": "2.0"
  },
  "bufferViews": [
    {
      "buffer": 0,
      "byteLength": 413736,
      "name": "floatBufferViews",
      "target": 34963
    },
    {
      "buffer": 0,
      "byteLength": 517632,
      "byteOffset": 413736,
      "byteStride": 8,
      "name": "floatBufferViews",
      "target": 34962
    },
    {
      "buffer": 0,
      "byteLength": 517632,
      "byteOffset": 931368,
      "byteStride": 12,
      "name": "floatBufferViews",
      "target": 34962
    },
    {
      "buffer": 0,
      "byteLength": 345088,
      "byteOffset": 1449000,
      "byteStride": 16,
      "name": "floatBufferViews",
      "target": 34962
    }
  ],
  "buffers": [
    {
      "byteLength": 1794088,
      "uri": "scene.bin"
    }
  ],
  "extensionsUsed": [
    "KHR_materials_specular"
  ],
  "images": [
    {
      "uri": "textures/material_0_baseColor.jpeg"
    },
    {
      "uri": "textures/material_0_metallicRoughness.png"
    },
    {
      "uri": "textures/material_0_normal.jpeg"
    }
  ],
  "materials": [
    {
      "extensions": {
        "KHR_materials_specular": {
          "specularColorFactor": [
            1.0,
            1.0,
            1.0
          ],
          "specularFactor": 0.12647657592861233
        }
      },
      "name": "material_0",
      "normalTexture": {
        "index": 2
      },
      "occlusionTexture": {
        "index": 1,
        "strength": 0.4190488961490168
      },
      "pbrMetallicRoughness": {
        "baseColorTexture": {
          "index": 0
        },
        "metallicFactor": 0.0,
        "metallicRoughnessTexture": {
          "index": 1
        },
        "roughnessFactor": 0.9188599431922078
      }
    }
  ],
  "meshes": [
    {
      "name": "Object_0",
      "primitives": [
        {
          "attributes": {
            "NORMAL": 1,
            "POSITION": 0,
            "TANGENT": 2,
            "TEXCOORD_0": 3,
            "TEXCOORD_1": 4,
            "TEXCOORD_2": 5
          },
          "indices": 6,
          "material": 0,
          "mode": 4
        }
      ]
    }
  ],
  "nodes": [
    {
      "children": [
        1
      ],
      "matrix": [
        1.0,
        0.0,
        0.0,
        0.0,
        0.0,
        2.220446049250313e-16,
        -1.0,
        0.0,
        0.0,
        1.0,
        2.220446049250313e-16,
        0.0,
        0.0,
        0.0,
        0.0,
        1.0
      ],
      "name": "Sketchfab_model"
    },
    {
      "children": [
        2
      ],
      "name": "root"
    },
    {
      "children": [
        3
      ],
      "matrix": [
        1.0,
        0.0,
        0.0,
        0.0,
        0.0,
        2.220446049250313e-16,
        1.0,
        0.0,
        0.0,
        -1.0,
        2.220446049250313e-16,
        0.0,
        0.0,
        0.0,
        0.0,
        1.0
      ],
      "name": "GLTF_SceneRootNode"
    },
    {
      "children": [
        4
      ],
      "name": "_0"
    },
    {
      "mesh": 0,
      "name": "Object_4"
    }
  ],
  "samplers": [
    {
      "magFilter": 9729,
      "minFilter": 9987,
      "wrapS": 10497,
      "wrapT": 10497
    }
  ],
  "scene": 0,
  "scenes": [
    {
      "name": "Sketchfab_Scene",
      "nodes": [
        0
      ]
    }
  ],
  "textures": [
    {
      "sampler": 0,
      "source": 0
    },
    {
      "sampler": 0,
      "source": 1
    },
    {
      "sampler": 0,
      "source": 2
    }
  ]
}
